# Exported from Wings 3D 1.5.4
mtllib wall.mtl
o Cube2
#64 vertices, 124 faces
v -0.50000000 -0.50163926 -0.50000000
v -0.50000000 -0.50163926 0.50000000
v 0.50000000 -0.50163926 -0.50000000
v 0.50000000 -0.50163926 0.50000000
v -0.50000000 0.48046717 -0.50000000
v -0.50000000 0.48046717 0.50000000
v 0.50000000 0.48046717 -0.50000000
v 0.50000000 0.48046717 0.50000000
v -0.40790926 0.55236656 0.0000000e+0
v 0.0000000e+0 0.55236656 0.40790926
v 0.40790926 0.55236656 0.0000000e+0
v 0.0000000e+0 0.55236656 -0.40790926
v 0.0000000e+0 0.55236656 0.20395463
v 0.0000000e+0 0.55236656 -0.20395463
v -0.40790926 0.55236656 -0.40790926
v -0.40790926 0.55236656 0.40790926
v 0.40790926 0.55236656 0.40790926
v 0.40790926 0.55236656 -0.40790926
v -0.40790926 0.55236656 0.20395463
v -0.40790926 0.55236656 -0.20395463
v 0.20395463 0.55236656 0.40790926
v -0.20395463 0.55236656 0.40790926
v 0.40790926 0.55236656 -0.20395463
v 0.40790926 0.55236656 0.20395463
v -0.20395463 0.55236656 -0.40790926
v 0.20395463 0.55236656 -0.40790926
v -0.20395463 0.55236656 0.20395463
v 0.20395463 0.55236656 0.20395463
v -0.20395463 0.55236656 -0.20395463
v 0.20395463 0.55236656 -0.20395463
v -0.20395463 0.55236656 0.40790926
v -0.20395463 0.55236656 0.20395463
v -0.40790926 0.55236656 0.20395463
v -0.40790926 0.55236656 0.40790926
v -0.20395463 0.55236656 -0.20395463
v -0.20395463 0.55236656 -0.40790926
v -0.40790926 0.55236656 -0.40790926
v -0.40790926 0.55236656 -0.20395463
v 0.20395463 0.55236656 -0.40790926
v 0.20395463 0.55236656 -0.20395463
v 0.40790926 0.55236656 -0.20395463
v 0.40790926 0.55236656 -0.40790926
v 0.20395463 0.55236656 0.20395463
v 0.20395463 0.55236656 0.40790926
v 0.40790926 0.55236656 0.40790926
v 0.40790926 0.55236656 0.20395463
v -0.20395463 0.69836074 -0.20395463
v -0.20395463 0.69836074 -0.40790926
v -0.40790926 0.69836074 -0.40790926
v -0.40790926 0.69836074 -0.20395463
v -0.20395463 0.69836074 0.40790926
v -0.20395463 0.69836074 0.20395463
v -0.40790926 0.69836074 0.20395463
v -0.40790926 0.69836074 0.40790926
v 0.20395463 0.69836074 0.20395463
v 0.20395463 0.69836074 0.40790926
v 0.40790926 0.69836074 0.40790926
v 0.40790926 0.69836074 0.20395463
v 0.20395463 0.69836074 -0.40790926
v 0.40790926 0.69836074 -0.40790926
v 0.40790926 0.55236656 -0.40790926
v 0.20395463 0.55236656 -0.40790926
v 0.20395463 0.69836074 -0.20395463
v 0.40790926 0.69836074 -0.20395463
vt 0.0000000e+0 0.40185765
vt 0.0000000e+0 0.80371529
vt 0.0000000e+0 0.86345309
vt 0.0000000e+0 0.92860940
vt 2.7755576e-17 0.40185765
vt 2.4980018e-16 0.0000000e+0
vt 6.5156311e-2 0.80371529
vt 6.5156311e-2 0.86345309
vt 6.5156311e-2 0.92860940
vt 0.13031262 0.80371529
vt 0.13031262 0.86345309
vt 0.13031262 0.92860940
vt 0.19546893 0.80371529
vt 0.19546893 0.86345309
vt 0.19546893 0.92860940
vt 0.26062524 0.80371529
vt 0.26062524 0.86345309
vt 0.31946473 0.0000000e+0
vt 0.31946473 2.2204460e-16
vt 0.31946473 0.40185765
vt 0.31946473 0.80371529
vt 0.32578156 0.80371529
vt 0.32578156 0.86345309
vt 0.39093787 0.80371529
vt 0.39093787 0.86345309
vt 0.45609418 0.80371529
vt 0.45609418 0.86345309
vt 0.52125049 0.80371529
vt 0.52125049 0.86345309
vt 0.58640680 0.80371529
vt 0.58640680 0.86345309
vt 0.63892947 1.3877788e-16
vt 0.63892947 2.9419744e-2
vt 0.63892947 9.4576055e-2
vt 0.63892947 0.15973237
vt 0.63892947 0.22488868
vt 0.63892947 0.29004499
vt 0.63892947 0.40185765
vt 0.63892947 0.80371529
vt 0.65156311 0.80371529
vt 0.65156311 0.86345309
vt 0.68053527 0.0000000e+0
vt 0.68053527 0.31946473
vt 0.68053527 0.36107053
vt 0.68053527 0.40267634
vt 0.68053527 0.44428214
vt 0.68053527 0.50943845
vt 0.68053527 0.57459476
vt 0.68053527 0.63975107
vt 0.68053527 0.70490738
vt 0.68053527 0.76464518
vt 0.70995501 0.31946473
vt 0.70995501 0.40267634
vt 0.70995501 0.44428214
vt 0.71671942 0.80371529
vt 0.71671942 0.86345309
vt 0.74569158 0.44428214
vt 0.74569158 0.57459476
vt 0.74569158 0.63975107
vt 0.74569158 0.70490738
vt 0.74569158 0.76464518
vt 0.77511132 0.31946473
vt 0.77511132 0.40267634
vt 0.77511132 0.44428214
vt 0.78187573 0.80371529
vt 0.78187573 0.86345309
vt 0.81084789 0.44428214
vt 0.81084789 0.57459476
vt 0.81084789 0.63433256
vt 0.81084789 0.63975107
vt 0.81084789 0.69948887
vt 0.81084789 0.70490738
vt 0.81084789 0.75922667
vt 0.81084789 0.76464518
vt 0.84026763 0.31946473
vt 0.84026763 0.40267634
vt 0.84026763 0.44428214
vt 0.87600420 0.44428214
vt 0.87600420 0.57459476
vt 0.87600420 0.63433256
vt 0.87600420 0.69948887
vt 0.87600420 0.75922667
vt 0.90542394 0.31946473
vt 0.90542394 0.40267634
vt 0.90542394 0.44428214
vt 0.94116051 0.44428214
vt 0.94116051 0.50943845
vt 0.94116051 0.57459476
vt 0.97058026 0.31946473
vt 0.97058026 0.40267634
vt 0.97058026 0.44428214
vt 1.00000000 0.0000000e+0
vt 1.00000000 0.31946473
vt 1.00000000 0.36107053
vt 1.00000000 0.40267634
vn -0.57735027 -0.57735027 -0.57735027
vn -0.57735027 -0.57735027 0.57735027
vn 0.57735027 -0.57735027 -0.57735027
vn 0.57735027 -0.57735027 0.57735027
vn -0.53361349 0.65613512 -0.53361349
vn -0.45830105 0.76152498 0.45830105
vn 0.45830105 0.76152498 -0.45830105
vn 0.53361349 0.65613512 0.53361349
vn -0.32540942 0.94557322 0.0000000e+0
vn 0.0000000e+0 0.94557322 0.32540942
vn 0.32540942 0.94557322 0.0000000e+0
vn 0.0000000e+0 0.94557322 -0.32540942
vn 0.0000000e+0 1.00000000 0.0000000e+0
vn 0.0000000e+0 1.00000000 0.0000000e+0
vn -0.34175145 0.87544954 -0.34175145
vn -0.34175145 0.87544954 0.34175145
vn 0.34175145 0.87544954 0.34175145
vn 0.34175145 0.87544954 -0.34175145
vn -0.43105235 0.90232692 0.0000000e+0
vn -0.43105235 0.90232692 0.0000000e+0
vn 0.0000000e+0 0.90232692 0.43105235
vn 0.0000000e+0 0.94557322 0.32540942
vn 0.43105235 0.90232692 0.0000000e+0
vn 0.43105235 0.90232692 0.0000000e+0
vn 0.0000000e+0 0.90232692 -0.43105235
vn 0.0000000e+0 0.94557322 -0.32540942
vn 0.0000000e+0 1.00000000 0.0000000e+0
vn 0.0000000e+0 1.00000000 0.0000000e+0
vn 0.0000000e+0 1.00000000 0.0000000e+0
vn 0.0000000e+0 1.00000000 0.0000000e+0
vn 0.70710678 0.0000000e+0 0.70710678
vn 0.70710678 0.0000000e+0 -0.70710678
vn -0.70710678 0.0000000e+0 -0.70710678
vn -0.70710678 0.0000000e+0 0.70710678
vn 0.70710678 0.0000000e+0 0.70710678
vn 0.70710678 0.0000000e+0 -0.70710678
vn -0.70710678 0.0000000e+0 -0.70710678
vn -0.70710678 0.0000000e+0 0.70710678
vn -1.00000000 0.0000000e+0 0.0000000e+0
vn -0.70710678 0.0000000e+0 0.70710678
vn 0.70710678 0.0000000e+0 0.70710678
vn 1.00000000 0.0000000e+0 0.0000000e+0
vn -0.70710678 0.0000000e+0 -0.70710678
vn -0.70710678 0.0000000e+0 0.70710678
vn 0.70710678 0.0000000e+0 0.70710678
vn 0.70710678 0.0000000e+0 -0.70710678
vn 0.57735027 0.57735027 0.57735027
vn 0.57735027 0.57735027 -0.57735027
vn -0.57735027 0.57735027 -0.57735027
vn -0.57735027 0.57735027 0.57735027
vn 0.57735027 0.57735027 0.57735027
vn 0.57735027 0.57735027 -0.57735027
vn -0.57735027 0.57735027 -0.57735027
vn -0.57735027 0.57735027 0.57735027
vn -0.57735027 0.57735027 -0.57735027
vn -0.57735027 0.57735027 0.57735027
vn 0.57735027 0.57735027 0.57735027
vn 0.57735027 0.57735027 -0.57735027
vn -0.57735027 0.57735027 -0.57735027
vn 0.57735027 0.57735027 -0.57735027
vn 0.0000000e+0 0.0000000e+0 -1.00000000
vn 0.0000000e+0 0.0000000e+0 -1.00000000
vn -0.57735027 0.57735027 0.57735027
vn 0.57735027 0.57735027 0.57735027
g Cube2_Cube2_auv
usemtl Cube2_auv
s 1
f 1/93/1 3/43/3 2/92/2
f 1/19/1 5/20/5 3/6/3
f 2/38/2 5/21/5 1/20/1
f 2/38/2 6/39/6 5/21/5
f 2/5/2 8/21/8 6/2/6
f 3/43/3 4/42/4 2/92/2
f 3/32/3 8/20/8 4/18/4
f 4/20/4 8/21/8 2/5/2
f 5/20/5 7/1/7 3/6/3
f 5/44/5 12/75/12 7/94/7
f 5/44/5 20/63/20 15/53/15
f 5/44/5 25/62/25 12/75/12
f 6/94/6 9/76/9 5/44/5
f 6/94/6 19/84/19 9/76/9
f 6/45/6 22/64/22 16/54/16
f 7/38/7 8/20/8 3/32/3
f 7/43/7 11/35/11 8/42/8
f 7/43/7 23/36/23 11/35/11
f 7/94/7 26/83/26 18/89/18
f 8/95/8 10/77/10 6/45/6
f 8/95/8 21/85/21 10/77/10
f 8/42/8 24/34/24 17/33/17
f 9/76/9 20/63/20 5/44/5
f 9/47/9 29/58/29 20/48/20
f 10/77/10 22/64/22 6/45/6
f 10/58/10 28/70/28 13/59/13
f 11/35/11 24/34/24 8/42/8
f 11/87/11 28/78/28 24/86/24
f 11/87/11 30/79/30 28/78/28
f 12/75/12 26/83/26 7/94/7
f 12/60/12 29/49/29 14/59/14
f 13/59/13 22/48/22 10/58/10
f 13/59/13 27/49/27 22/48/22
f 13/67/13 28/78/28 14/68/14
f 13/67/13 29/58/29 27/57/27
f 14/59/14 26/72/26 12/60/12
f 14/68/14 29/58/29 13/67/13
f 14/59/14 30/70/30 26/72/26
f 15/52/15 25/62/25 5/44/5
f 16/90/16 19/84/19 6/94/6
f 17/91/17 21/85/21 8/95/8
f 18/37/18 23/36/23 7/43/7
f 19/46/19 27/57/27 9/47/9
f 21/68/21 28/70/28 10/58/10
f 23/88/23 30/79/30 11/87/11
f 25/50/25 29/49/29 12/60/12
f 27/57/27 29/58/29 9/47/9
f 28/78/28 30/79/30 14/68/14
f 31/60/31 51/61/51 34/50/34
f 32/13/32 51/11/51 31/10/31
f 32/13/32 52/14/52 51/11/51
f 32/30/32 53/41/53 52/31/52
f 33/40/33 53/41/53 32/30/32
f 34/30/34 53/29/53 33/28/33
f 34/30/34 54/31/54 53/29/53
f 35/72/35 47/74/47 38/60/38
f 36/65/36 47/56/47 35/55/35
f 36/65/36 48/66/48 47/56/47
f 36/40/36 49/56/49 48/41/48
f 37/55/37 49/56/49 36/40/36
f 38/16/38 49/14/49 37/13/37
f 38/16/38 50/17/50 49/14/49
f 39/2/39 63/8/63 59/3/59
f 40/7/40 63/8/63 39/2/39
f 41/24/41 63/23/63 40/22/40
f 41/24/41 64/25/64 63/23/63
f 42/22/42 60/23/60 41/16/41
f 43/81/43 55/82/55 46/71/46
f 44/28/44 55/27/55 43/26/43
f 44/28/44 56/29/56 55/27/55
f 44/24/44 57/27/57 56/25/56
f 45/26/45 57/27/57 44/24/44
f 46/10/46 57/8/57 45/7/45
f 46/10/46 58/11/58 57/8/57
f 47/74/47 50/61/50 38/60/38
f 48/9/48 49/4/49 47/8/47
f 49/4/49 50/3/50 47/8/47
f 51/61/51 54/51/54 34/50/34
f 52/12/52 53/9/53 51/11/51
f 53/9/53 54/8/54 51/11/51
f 55/82/55 58/73/58 46/71/46
f 56/69/56 57/80/57 55/71/55
f 57/80/57 58/81/58 55/71/55
f 59/12/59 63/11/63 60/15/60
f 60/69/60 62/79/62 59/80/59
f 60/23/60 64/17/64 41/16/41
f 61/68/61 62/79/62 60/69/60
f 63/11/63 64/14/64 60/15/60
g Cube2_default2
usemtl default2
s 1
f 15//15 36//36 25//25
f 15//15 37//37 36//36
f 16//16 33//33 19//19
f 16//16 34//34 33//33
f 17//17 45//45 21//21
f 18//18 41//41 23//23
f 18//18 42//42 41//41
f 18//18 61//61 42//42
f 18//18 62//62 61//61
f 19//19 33//33 27//27
f 20//20 37//37 15//15
f 20//20 38//38 37//37
f 21//21 43//43 28//28
f 21//21 44//44 43//43
f 21//21 45//45 44//44
f 22//22 34//34 16//16
f 23//23 41//41 30//30
f 24//24 45//45 17//17
f 24//24 46//46 45//45
f 25//25 35//35 29//29
f 25//25 36//36 35//35
f 26//26 62//62 18//18
f 27//27 31//31 22//22
f 27//27 32//32 31//31
f 27//27 33//33 32//32
f 28//28 43//43 24//24
f 29//29 35//35 20//20
f 30//30 39//39 26//26
f 30//30 40//40 39//39
f 30//30 41//41 40//40
f 31//31 34//34 22//22
f 35//35 38//38 20//20
f 39//39 62//62 26//26
f 42//42 61//61 60//60
f 43//43 46//46 24//24
f 59//59 62//62 39//39
